# xmcd
#
# Track frame offsets: 
#        183
#        17683
#        38570
#        80358
#        107358
#        131133
#        144833
#
# Disc length: 2284 seconds
#
# Revision: 1
# Processed by: cddbd v1.5.2PL0 Copyright (c) Steve Scherf et al.
# Submitted via: ExactAudioCopy v1.0b1
#
DISCID=4a08ea07
DTITLE=Muddy Waters Blues Band - Unreleased In The West 2
DYEAR=1976
DGENRE=Blues
TTITLE0=Blow Wind Blow
TTITLE1=What's The Matter With The Mill
TTITLE2=Kansas City
TTITLE3=Caldonia
TTITLE4=Screamin' And Crying
TTITLE5=I Got My Mojo Working
TTITLE6=Garbage Man
EXTD=YEAR: 1990
EXTT0=
EXTT1=
EXTT2=
EXTT3=
EXTT4=
EXTT5=
EXTT6=
PLAYORDER=
